HIERARCHY
ROOT hip
{
  OFFSET 0 0 0
  CHANNELS 6 Xposition Yposition Zposition Zrotation Yrotation Xrotation
  JOINT abdomen
  {
    OFFSET 0 20.6881 -0.73152
    CHANNELS 3 Zrotation Xrotation Yrotation
    JOINT chest
    {
      OFFSET 0 11.7043 -0.48768
      CHANNELS 3 Zrotation Xrotation Yrotation
      JOINT neck
      {
        OFFSET 0 22.1894 -2.19456
        CHANNELS 3 Zrotation Xrotation Yrotation
        JOINT head
        {
          OFFSET -0.24384 7.07133 1.2192
          CHANNELS 3 Zrotation Xrotation Yrotation
          JOINT leftEye
          {
            OFFSET 4.14528 8.04674 8.04672
            CHANNELS 3 Zrotation Xrotation Yrotation
            End Site
            {
              OFFSET 1 0 0
            }
          }
          JOINT rightEye
          {
            OFFSET -3.6576 8.04674 8.04672
            CHANNELS 3 Zrotation Xrotation Yrotation
            End Site
            {
              OFFSET 1 0 0
            }
          }
        }
      }
      JOINT rCollar
      {
        OFFSET -2.68224 19.2634 -4.8768
        CHANNELS 3 Zrotation Xrotation Yrotation
        JOINT rShldr
        {
          OFFSET -8.77824 -1.95073 1.46304
          CHANNELS 3 Zrotation Xrotation Yrotation
          JOINT rForeArm
          {
            OFFSET -28.1742 -1.7115 0.48768
            CHANNELS 3 Zrotation Xrotation Yrotation
            JOINT rHand
            {
              OFFSET -22.5879 0.773209 7.07136
              CHANNELS 3 Zrotation Xrotation Yrotation
              JOINT rThumb1
              {
                OFFSET -1.2192 -0.487915 3.41376
                CHANNELS 3 Zrotation Xrotation Yrotation
                JOINT rThumb2
                {
                  OFFSET -3.37035 -0.52449 3.41376
                  CHANNELS 3 Zrotation Xrotation Yrotation
                  End Site
                  {
                    OFFSET -1.78271 -1.18214 1.43049
                  }
                }
              }
              JOINT rIndex1
              {
                OFFSET -7.75947 0.938293 5.60832
                CHANNELS 3 Zrotation Xrotation Yrotation
                JOINT rIndex2
                {
                  OFFSET -2.54057 -0.884171 1.56538
                  CHANNELS 3 Zrotation Xrotation Yrotation
                  End Site
                  {
                    OFFSET -1.62519 -0.234802 1.16502
                  }
                }
              }
              JOINT rMid1
              {
                OFFSET -8.24714 1.18213 3.41376
                CHANNELS 3 Zrotation Xrotation Yrotation
                JOINT rMid2
                {
                  OFFSET -3.10165 -0.590103 1.0647
                  CHANNELS 3 Zrotation Xrotation Yrotation
                  End Site
                  {
                    OFFSET -2.48547 -0.328903 0.83742
                  }
                }
              }
              JOINT rRing1
              {
                OFFSET -8.82822 0.546677 1.51678
                CHANNELS 3 Zrotation Xrotation Yrotation
                JOINT rRing2
                {
                  OFFSET -2.60934 -0.819778 -0.0198488
                  CHANNELS 3 Zrotation Xrotation Yrotation
                  End Site
                  {
                    OFFSET -2.33842 -0.294052 0.168128
                  }
                }
              }
              JOINT rPinky1
              {
                OFFSET -8.27202 -0.0477905 -0.4584
                CHANNELS 3 Zrotation Xrotation Yrotation
                JOINT rPinky2
                {
                  OFFSET -1.82734 -0.647385 -0.700984
                  CHANNELS 3 Zrotation Xrotation Yrotation
                  End Site
                  {
                    OFFSET -1.69225 -0.51767 -0.607171
                  }
                }
              }
            }
          }
        }
      }
      JOINT lCollar
      {
        OFFSET 2.68224 19.2634 -4.8768
        CHANNELS 3 Zrotation Xrotation Yrotation
        JOINT lShldr
        {
          OFFSET 8.77824 -1.95073 1.46304
          CHANNELS 3 Zrotation Xrotation Yrotation
          JOINT lForeArm
          {
            OFFSET 28.1742 -1.7115 0.48768
            CHANNELS 3 Zrotation Xrotation Yrotation
            JOINT lHand
            {
              OFFSET 22.5879 0.773209 7.07136
              CHANNELS 3 Zrotation Xrotation Yrotation
              JOINT lThumb1
              {
                OFFSET 1.2192 -0.487915 3.41376
                CHANNELS 3 Zrotation Xrotation Yrotation
                JOINT lThumb2
                {
                  OFFSET 3.37035 -0.52449 3.41376
                  CHANNELS 3 Zrotation Xrotation Yrotation
                  End Site
                  {
                    OFFSET 1.78271 -1.18214 1.43049
                  }
                }
              }
              JOINT lIndex1
              {
                OFFSET 7.75947 0.938293 5.60832
                CHANNELS 3 Zrotation Xrotation Yrotation
                JOINT lIndex2
                {
                  OFFSET 2.54057 -0.884171 1.56538
                  CHANNELS 3 Zrotation Xrotation Yrotation
                  End Site
                  {
                    OFFSET 1.62519 -0.234802 1.16502
                  }
                }
              }
              JOINT lMid1
              {
                OFFSET 8.24714 1.18213 3.41376
                CHANNELS 3 Zrotation Xrotation Yrotation
                JOINT lMid2
                {
                  OFFSET 3.10165 -0.590103 1.0647
                  CHANNELS 3 Zrotation Xrotation Yrotation
                  End Site
                  {
                    OFFSET 2.48547 -0.328903 0.83742
                  }
                }
              }
              JOINT lRing1
              {
                OFFSET 8.82822 0.546677 1.51678
                CHANNELS 3 Zrotation Xrotation Yrotation
                JOINT lRing2
                {
                  OFFSET 2.60934 -0.819778 -0.0198488
                  CHANNELS 3 Zrotation Xrotation Yrotation
                  End Site
                  {
                    OFFSET 2.33842 -0.294052 0.168128
                  }
                }
              }
              JOINT lPinky1
              {
                OFFSET 8.27202 -0.0477905 -0.4584
                CHANNELS 3 Zrotation Xrotation Yrotation
                JOINT lPinky2
                {
                  OFFSET 1.82734 -0.647385 -0.700984
                  CHANNELS 3 Zrotation Xrotation Yrotation
                  End Site
                  {
                    OFFSET 1.69225 -0.51767 -0.607171
                  }
                }
              }
            }
          }
        }
      }
    }
  }
  JOINT rButtock
  {
    OFFSET -8.77824 4.35084 1.2192
    CHANNELS 3 Zrotation Xrotation Yrotation
    JOINT rThigh
    {
      OFFSET 0 -1.70687 -2.19456
      CHANNELS 3 Zrotation Xrotation Yrotation
      JOINT rShin
      {
        OFFSET 0 -36.8199 0.73152
        CHANNELS 3 Zrotation Xrotation Yrotation
        JOINT rFoot
        {
          OFFSET 0.73152 -45.1104 -5.12064
          CHANNELS 3 Zrotation Xrotation Yrotation
          End Site
          {
            OFFSET -1.1221 -3.69964 12.103
          }
        }
      }
    }
  }
  JOINT lButtock
  {
    OFFSET 8.77824 4.35084 1.2192
    CHANNELS 3 Zrotation Xrotation Yrotation
    JOINT lThigh
    {
      OFFSET 0 -1.70687 -2.19456
      CHANNELS 3 Zrotation Xrotation Yrotation
      JOINT lShin
      {
        OFFSET 0 -36.8199 0.73152
        CHANNELS 3 Zrotation Xrotation Yrotation
        JOINT lFoot
        {
          OFFSET -0.73152 -45.1104 -5.12064
          CHANNELS 3 Zrotation Xrotation Yrotation
          End Site
          {
            OFFSET 1.1221 -3.69964 12.103
          }
        }
      }
    }
  }
}
MOTION
Frames:	6
Frame Time:	0.03333
-10.1766 56.3181 -202.035 -16.5742 -33.3696 20.2013 3.22034 7.864489999999998 10.941899999999999 3.0201899999999995 -8.698510000000002 3.15531 0.28200500000000006 10.486 6.05682 5.948949999999999 -22.531 13.1733 -0.0 0.0 0.0 -0.0 0.0 0.0 -4.308450000000001e-13 -5.91588e-13 6.04454e-13 79.8935 57.57870000000001 -15.408300000000002 -26.2456 -45.782 95.0854 -3.87932 -47.46139999999999 -8.810450000000001 -3.1474400000000005e-09 2.23214e-08 -8.37421e-10 -5.40182e-09 3.77614e-08 -1.54295e-09 -3.14743e-09 2.23214e-08 -8.374309999999999e-10 7.730909999999999 5.47488 0.417314 -3.1474400000000005e-09 2.23214e-08 -8.37424e-10 2.90554 0.965183 0.102902 -3.14743e-09 2.23214e-08 -8.3742e-10 10.278600000000003 0.731801 0.0259123 -3.1474400000000005e-09 2.2321299999999998e-08 -8.37418e-10 2.22167 -0.733487 -0.20892000000000002 -4.3101399999999993e-13 -5.91579e-13 6.042559999999999e-13 -33.179700000000004 29.501299999999997 -36.927 26.2077 -23.9795 -57.64439999999999 0.028715599999999997 -4.8315 0.680654 -1.87735e-10 -5.83857e-09 -3.1210200000000005e-09 -3.11164e-10 -1.0136599999999998e-08 -5.399430000000001e-09 -1.87737e-10 -5.838619999999999e-09 -3.1210200000000005e-09 -7.730909999999999 5.47488 -0.417314 -1.87732e-10 -5.83857e-09 -3.12101e-09 -2.90554 0.965183 -0.102902 -1.87745e-10 -5.83857e-09 -3.12101e-09 -10.278600000000003 0.731801 -0.0259123 -1.87735e-10 -5.83857e-09 -3.1210200000000005e-09 -2.22167 -0.733487 0.20892000000000002 -2.03217e-16 0.0 -3.88251e-19 -16.8977 15.1155 3.06624 0.109576 16.423 1.78989 2.42669 0.9871300000000002 -15.350200000000003 2.03217e-16 0.0 3.88251e-19 81.045 -49.8627 70.6461 2.21262 70.4112 -2.3700499999999995 -0.18082700000000002 6.766090000000001 14.812
-10.8848 55.6404 -203.84 -16.982 -32.4127 20.368199999999998 4.594530000000001 7.589120000000001 9.73049 2.64052 -7.96808 2.78218 0.610558 10.4164 6.56695 5.13395 -21.6802 13.928099999999999 -0.0 0.0 0.0 -0.0 0.0 0.0 -5.88185e-13 -1.0512700000000002e-12 2.9390899999999993e-13 86.9772 50.0294 -27.9923 -25.759 -46.6664 97.0808 -9.109919999999999 -61.987 -15.1741 -3.48998e-09 1.55703e-08 5.2945499999999996e-11 -6.00015e-09 2.60754e-08 -8.00272e-11 -3.48998e-09 1.55703e-08 5.2928e-11 7.730909999999999 5.47488 0.417314 -3.4899899999999994e-09 1.55703e-08 5.29473e-11 2.90554 0.965183 0.102902 -3.48998e-09 1.55703e-08 5.2945099999999984e-11 10.278600000000003 0.731801 0.0259123 -3.4899899999999994e-09 1.55703e-08 5.294989999999999e-11 2.22167 -0.733487 -0.20892000000000002 -5.88302e-13 -1.0512700000000002e-12 2.93763e-13 -34.791199999999996 23.7935 -36.1217 22.0995 -16.625399999999996 -43.9604 0.0338611 11.8946 -1.63431 -1.7259000000000002e-09 -3.84459e-09 -3.05436e-09 -3.00782e-09 -6.4275e-09 -5.22921e-09 -1.7259000000000002e-09 -3.8446100000000004e-09 -3.05436e-09 -7.730909999999999 5.47488 -0.417314 -1.7259000000000002e-09 -3.844570000000001e-09 -3.05436e-09 -2.90554 0.965183 -0.102902 -1.7259100000000003e-09 -3.84459e-09 -3.05436e-09 -10.278600000000003 0.731801 -0.0259123 -1.72589e-09 -3.84459e-09 -3.05436e-09 -2.22167 -0.733487 0.20892000000000002 -2.03217e-16 0.0 -3.88251e-19 -14.9448 15.4586 1.87689 0.109571 16.3639 1.78352 1.6469999999999998 -1.50403 -18.015699999999995 2.03217e-16 0.0 3.88251e-19 83.5675 -51.0769 71.6463 2.44243 71.79540000000001 -2.62281 -0.0637199 5.90317 10.4183
-11.6015 54.9641 -205.621 -17.3583 -31.304700000000004 19.8358 6.1366700000000005 8.02345 8.57885 2.3430299999999997 -7.55953 2.4587100000000004 0.682192 10.4287 6.96837 4.55678 -21.091 14.5565 -0.0 0.0 0.0 -0.0 0.0 0.0 -6.50426e-13 -1.31356e-12 -1.90784e-13 90.66380000000001 44.7376 -36.54529999999999 -25.540800000000004 -47.110800000000005 97.9556 -16.613 -70.4786 -23.353600000000004 -3.11487e-09 5.98383e-09 6.66463e-10 -5.37101e-09 9.77351e-09 9.51448e-10 -3.11487e-09 5.98382e-09 6.66441e-10 7.730909999999999 5.47488 0.417314 -3.11487e-09 5.98385e-09 6.664689999999999e-10 2.90554 0.965183 0.102902 -3.11486e-09 5.98384e-09 6.664610000000001e-10 10.278600000000003 0.731801 0.0259123 -3.11487e-09 5.98384e-09 6.664689999999999e-10 2.22167 -0.733487 -0.20892000000000002 -6.50464e-13 -1.31357e-12 -1.90883e-13 -35.5072 19.7011 -37.0952 17.4138 -10.0701 -32.7181 0.880944 25.6459 -3.8689299999999993 -3.0724299999999995e-09 -9.43536e-11 -2.01979e-09 -5.3543399999999995e-09 2.0546100000000002e-10 -3.4191100000000006e-09 -3.0724299999999995e-09 -9.435310000000001e-11 -2.01978e-09 -7.730909999999999 5.47488 -0.417314 -3.0724299999999995e-09 -9.43349e-11 -2.01979e-09 -2.90554 0.965183 -0.102902 -3.07244e-09 -9.43575e-11 -2.01979e-09 -10.278600000000003 0.731801 -0.0259123 -3.0724200000000004e-09 -9.43583e-11 -2.0197999999999996e-09 -2.22167 -0.733487 0.20892000000000002 -2.03217e-16 0.0 -3.88251e-19 -12.8719 15.521499999999996 0.521773 0.111778 17.4277 1.8209500000000003 0.6390360000000002 -3.82841 -20.938099999999995 2.03217e-16 0.0 3.88251e-19 85.897 -52.18899999999999 72.7015 2.82696 73.6439 -3.01049 0.0181993 4.78766 6.52245
-12.3069 54.357699999999994 -207.317 -18.0555 -30.5977 18.9139 7.586829999999999 9.968420000000002 7.822339999999999 2.00279 -8.05583 2.29858 0.49436799999999986 10.6217 7.00716 5.2624699999999995 -21.9243 14.850200000000001 -0.0 0.0 0.0 -0.0 0.0 0.0 -5.06273e-13 -6.30437e-13 -2.98901e-13 94.61680000000001 43.33819999999999 -43.768600000000006 -25.5434 -47.0997 97.9428 -10.7732 -64.5607 -17.0623 3.6191499999999993e-10 8.936349999999998e-10 1.6927700000000001e-09 5.5963e-10 1.55048e-09 2.90177e-09 3.6191799999999996e-10 8.93637e-10 1.6927599999999998e-09 7.730909999999999 5.47488 0.417314 3.61913e-10 8.936469999999999e-10 1.6927700000000001e-09 2.90554 0.965183 0.102902 3.6192499999999997e-10 8.93642e-10 1.6927700000000001e-09 10.278600000000003 0.731801 0.0259123 3.61917e-10 8.936429999999998e-10 1.69278e-09 2.22167 -0.733487 -0.20892000000000002 -5.06276e-13 -6.304540000000001e-13 -2.99047e-13 -36.2349 18.9266 -36.2651 16.164 -8.53075 -31.043700000000005 1.4153200000000001 30.7964 -4.8334 -3.98138e-11 4.12392e-09 1.4956300000000001e-09 -4.3539e-11 7.0503200000000005e-09 2.57648e-09 -3.98189e-11 4.12391e-09 1.49564e-09 -7.730909999999999 5.47488 -0.417314 -3.98085e-11 4.12391e-09 1.4956300000000001e-09 -2.90554 0.965183 -0.102902 -3.98215e-11 4.12392e-09 1.4956300000000001e-09 -10.278600000000003 0.731801 -0.0259123 -3.980560000000001e-11 4.12392e-09 1.49562e-09 -2.22167 -0.733487 0.20892000000000002 -2.03217e-16 0.0 -3.88251e-19 -10.971 15.099900000000002 -0.8121970000000001 0.109255 19.779099999999996 1.89156 -0.761379 -6.40951 -23.884 2.03217e-16 0.0 3.88251e-19 87.4616 -52.5896 73.0594 3.39409 75.7067 -3.5451699999999997 0.0660804 3.68033 3.809179999999999
-12.938099999999999 53.8458 -208.841 -19.3328 -30.305500000000006 18.4202 9.039420000000002 11.949700000000002 7.34826 1.72276 -8.65698 2.22995 0.145691 10.905600000000002 6.92486 6.355209999999999 -23.0489 15.0246 -0.0 0.0 0.0 -0.0 0.0 0.0 -2.95007e-13 9.54263e-14 -2.63887e-13 99.1573 43.4792 -49.9754 -25.6642 -46.8947 97.4786 -5.9238 -54.66420000000001 -11.4335 3.0906e-09 -1.54898e-09 2.07918e-09 5.224300000000001e-09 -2.22285e-09 3.72822e-09 3.09061e-09 -1.54898e-09 2.07918e-09 7.730909999999999 5.47488 0.417314 3.0906e-09 -1.54898e-09 2.07918e-09 2.90554 0.965183 0.102902 3.09061e-09 -1.54898e-09 2.07918e-09 10.278600000000003 0.731801 0.0259123 3.09061e-09 -1.54898e-09 2.07919e-09 2.22167 -0.733487 -0.20892000000000002 -2.95005e-13 9.540769999999999e-14 -2.64085e-13 -36.8937 19.4329 -35.439499999999995 17.1825 -9.834 -32.211 1.38556 31.4146 -4.9240699999999995 2.59194e-09 6.30959e-09 3.91646e-09 4.56235e-09 1.04444e-08 6.69038e-09 2.59194e-09 6.30956e-09 3.91646e-09 -7.730909999999999 5.47488 -0.417314 2.5919500000000003e-09 6.30956e-09 3.91645e-09 -2.90554 0.965183 -0.102902 2.59193e-09 6.30959e-09 3.91645e-09 -10.278600000000003 0.731801 -0.0259123 2.5919500000000003e-09 6.30959e-09 3.91645e-09 -2.22167 -0.733487 0.20892000000000002 -2.03217e-16 0.0 -3.88251e-19 -9.32649 14.335700000000001 -2.12999 0.10181300000000001 22.4485 1.98171 -2.32212 -8.78249 -26.5774 2.03217e-16 0.0 3.88251e-19 88.6651 -52.6986 73.1221 4.02443 77.47100000000002 -4.138770000000001 0.0705108 2.53964 1.7868299999999997
-13.3976 53.428200000000004 -210.103 -20.6397 -30.2179 18.582 10.6312 12.400800000000002 7.2306799999999996 1.59595 -8.5897 2.2447100000000004 -0.30553199999999997 11.259 6.87871 7.277980000000001 -23.6653 15.212 -0.0 0.0 0.0 -0.0 0.0 0.0 -1.5005600000000003e-13 -4.74052e-14 -8.38126e-14 103.664 43.8075 -54.9054 -25.750899999999998 -46.74 97.1382 -4.50118 -49.895199999999996 -9.6289 3.80001e-10 7.01356e-10 3.8785700000000007e-10 6.25353e-10 1.3451e-09 6.97372e-10 3.8000499999999997e-10 7.01354e-10 3.87852e-10 7.730909999999999 5.47488 0.417314 3.80001e-10 7.01357e-10 3.87855e-10 2.90554 0.965183 0.102902 3.80007e-10 7.01358e-10 3.878579999999999e-10 10.278600000000003 0.731801 0.0259123 3.80001e-10 7.01358e-10 3.87863e-10 2.22167 -0.733487 -0.20892000000000002 -1.50109e-13 -4.74148e-14 -8.399270000000001e-14 -37.68070000000001 19.89 -35.7722 17.624500000000005 -10.2942 -33.1682 1.08171 28.276499999999995 -4.330349999999999 -2.5345e-10 1.50453e-09 3.8158e-10 -4.2558000000000004e-10 2.5545300000000003e-09 6.533550000000001e-10 -2.5346e-10 1.50453e-09 3.8159e-10 -7.730909999999999 5.47488 -0.417314 -2.53444e-10 1.50453e-09 3.81577e-10 -2.90554 0.965183 -0.102902 -2.53453e-10 1.50453e-09 3.81578e-10 -10.278600000000003 0.731801 -0.0259123 -2.53443e-10 1.50453e-09 3.81569e-10 -2.22167 -0.733487 0.20892000000000002 -2.03217e-16 0.0 -3.88251e-19 -8.01628 13.1918 -3.5164400000000002 0.0995769 24.2981 2.05997 -3.72884 -10.7663 -28.500600000000002 2.03217e-16 0.0 3.88251e-19 90.0877 -52.67990000000001 73.2855 4.36577 78.26630000000002 -4.476570000000001 -0.0117008 1.28548 0.176031
